HIERARCHY
ROOT Hips
{
	OFFSET 0.000000 0.000000 0.000000
	CHANNELS 6 Xposition Yposition Zposition Xrotation Yrotation Zrotation
	JOINT LeftUpLeg_virtual
	{
		OFFSET 0.000000 0.000000 0.000000
		CHANNELS 3 Xrotation Yrotation Zrotation
		JOINT LeftUpLeg
		{
			OFFSET 10.205400 -3.823500 0.155100
			CHANNELS 3 Xrotation Yrotation Zrotation
			JOINT LeftLeg
			{
				OFFSET 0.708757 -12.982077 0.567790
				CHANNELS 3 Xrotation Yrotation Zrotation
				JOINT LeftFoot
				{
					OFFSET -0.708756 -10.717838 -2.184338
					CHANNELS 3 Xrotation Yrotation Zrotation
					JOINT LeftToeBase
					{
						OFFSET 0.108149 -7.191104 7.560241
						CHANNELS 3 Xrotation Yrotation Zrotation
						JOINT LeftToe_End
						{
							OFFSET 0.070230 0.081724 4.490308
							CHANNELS 3 Xrotation Yrotation Zrotation
							End Site
							{
								OFFSET 0 0 0
							}
						}
					}
				}
			}
		}
	}
	JOINT RightUpLeg_virtual
	{
		OFFSET 0.000000 0.000000 0.000000
		CHANNELS 3 Xrotation Yrotation Zrotation
		JOINT RightUpLeg
		{
			OFFSET -10.205400 -3.823500 0.005500
			CHANNELS 3 Xrotation Yrotation Zrotation
			JOINT RightLeg
			{
				OFFSET -0.708756 -12.982134 0.610632
				CHANNELS 3 Xrotation Yrotation Zrotation
				JOINT RightFoot
				{
					OFFSET 0.708754 -10.717769 -1.945823
					CHANNELS 3 Xrotation Yrotation Zrotation
					JOINT RightToeBase
					{
						OFFSET -0.108140 -7.191069 7.372968
						CHANNELS 3 Xrotation Yrotation Zrotation
						JOINT RightToe_End
						{
							OFFSET -0.070227 0.081735 4.479403
							CHANNELS 3 Xrotation Yrotation Zrotation
							End Site
							{
								OFFSET 0 0 0
							}
						}
					}
				}
			}
		}
	}
	JOINT Spine_virtual
	{
		OFFSET 0.000000 0.000000 0.000000
		CHANNELS 3 Xrotation Yrotation Zrotation
		JOINT Spine
		{
			OFFSET 0.000000 6.876099 0.125700
			CHANNELS 3 Xrotation Yrotation Zrotation
			JOINT Spine1
			{
				OFFSET 0.000000 5.730043 0.104720
				CHANNELS 3 Xrotation Yrotation Zrotation
				JOINT Spine1_split
				{
					OFFSET 0.000000 5.730043 0.104720
					CHANNELS 3 Xrotation Yrotation Zrotation
					JOINT Spine2
					{
						OFFSET 0.000000 5.730043 0.104720
						CHANNELS 3 Xrotation Yrotation Zrotation
						JOINT Neck_virtual
						{
							OFFSET 0.000000 0.000000 0.000000
							CHANNELS 3 Xrotation Yrotation Zrotation
							JOINT Neck
							{
								OFFSET 0.000000 10.314075 0.188496
								CHANNELS 3 Xrotation Yrotation Zrotation
								JOINT Head
								{
									OFFSET 0.000000 7.643700 -2.377400
									CHANNELS 3 Xrotation Yrotation Zrotation
									JOINT HeadTop_End
									{
										OFFSET 0.000000 43.788605 -13.619600
										CHANNELS 3 Xrotation Yrotation Zrotation
										End Site
										{
											OFFSET 0 0 0
										}
									}
								}
							}
						}
						JOINT LeftShoulder_virtual
						{
							OFFSET 0.000000 0.000000 0.000000
							CHANNELS 3 Xrotation Yrotation Zrotation
							JOINT LeftShoulder
							{
								OFFSET 2.196100 4.412489 0.087492
								CHANNELS 3 Xrotation Yrotation Zrotation
								JOINT LeftShoulder_split
								{
									OFFSET 2.196100 4.412489 0.087492
									CHANNELS 3 Xrotation Yrotation Zrotation
									JOINT LeftArm
									{
										OFFSET 8.771219 -2.981674 -0.026999
										CHANNELS 3 Xrotation Yrotation Zrotation
										JOINT LeftForeArm
										{
											OFFSET 8.512804 0.000000 -0.000000
											CHANNELS 3 Xrotation Yrotation Zrotation
											JOINT LeftHand
											{
												OFFSET 18.484802 0.000000 -0.000000
												CHANNELS 3 Xrotation Yrotation Zrotation
												End Site
												{
													OFFSET 0 0 0
												}
											}
										}
									}
								}
							}
						}
						JOINT RightShoulder_virtual
						{
							OFFSET 0.000000 0.000000 0.000000
							CHANNELS 3 Xrotation Yrotation Zrotation
							JOINT RightShoulder
							{
								OFFSET -2.196100 4.412496 0.070690
								CHANNELS 3 Xrotation Yrotation Zrotation
								JOINT RightShoulder_split
								{
									OFFSET -2.196100 4.412496 0.070690
									CHANNELS 3 Xrotation Yrotation Zrotation
									JOINT RightArm
									{
										OFFSET -8.771282 -2.981682 -0.094208
										CHANNELS 3 Xrotation Yrotation Zrotation
										JOINT RightForeArm
										{
											OFFSET -8.494598 0.000000 0.000000
											CHANNELS 3 Xrotation Yrotation Zrotation
											JOINT RightHand
											{
												OFFSET -18.483803 0.000000 0.000001
												CHANNELS 3 Xrotation Yrotation Zrotation
												End Site
												{
													OFFSET 0 0 0
												}
											}
										}
									}
								}
							}
						}
					}
				}
			}
		}
	}
}
MOTION
Frames: 6
Frame Time: 0.03333333
0.247985 33.737206 -0.150452 0.000000 0.000000 0.000000 -2.866047 5.676788 -1.863738 -5.779322 11.223942 15.847473 18.173870 -5.920495 -1.763001 -14.178635 1.922749 -7.399054 1.655057 0.295179 -2.301054 0.000000 0.000000 0.000000 -3.104043 6.442294 -1.681426 -6.552592 -4.080484 -1.419197 12.925495 5.192657 0.288915 -3.637540 -0.425394 2.530117 -0.209781 0.203398 1.445386 0.000000 0.000000 0.000000 -2.962657 8.682929 -1.811702 9.759138 -0.523549 1.230587 3.207690 0.204871 -0.561195 0.273505 -2.193043 1.162907 0.000000 0.000000 0.000000 -4.287151 0.014315 0.111795 -0.055354 0.084460 0.465595 6.402011 -3.805313 -1.268325 0.000000 0.000000 0.000000 -4.703912 -0.423154 0.173832 0.588941 -3.796713 -8.437408 -0.711784 -2.089244 1.000424 4.862419 1.604495 -72.191971 3.423203 -11.809686 1.326615 0.000000 0.000000 0.000000 -5.442563 -0.758874 0.172773 0.653558 8.556758 5.820766 -3.082736 -0.938458 -0.419720 3.513592 12.499791 76.546333 16.801425 19.097588 -4.898261 0.000000 0.000000 0.000000 
0.350346 33.743553 -0.223785 0.000000 0.000000 0.000000 -2.702326 5.655125 -1.820151 -5.588182 11.084552 15.614711 18.210386 -5.691319 -1.773466 -14.484850 2.081884 -7.470303 1.726553 0.274564 -2.287004 0.000000 0.000000 0.000000 -2.800999 6.324528 -1.716527 -6.687298 -4.334284 -1.596581 12.649906 5.153412 0.230462 -3.877697 -0.344442 2.085738 0.177465 0.229639 1.340333 0.000000 0.000000 0.000000 -2.714518 8.245404 -1.826481 9.653534 -0.488792 1.239483 3.184734 0.215566 -0.578507 0.321835 -2.359348 0.989136 0.000000 0.000000 0.000000 -4.190981 0.038116 0.101827 -0.043220 0.187972 0.441794 6.459584 -3.961163 -1.105664 0.000000 0.000000 0.000000 -4.695291 -0.414403 0.125574 0.631771 -3.748278 -8.344945 -0.768757 -1.992720 1.042675 4.750351 1.446932 -72.198699 3.393524 -11.898289 1.307029 0.000000 0.000000 0.000000 -5.462784 -0.739738 0.197457 0.632006 8.203519 5.664810 -3.103189 -0.914260 -0.439264 3.432769 12.883217 76.455293 16.858715 19.578251 -5.086342 0.000000 0.000000 0.000000 
0.491197 33.704411 -0.205770 0.000000 0.000000 0.000000 -2.668064 5.691300 -1.831409 -5.427886 10.913411 15.412168 18.510612 -5.434944 -1.895856 -15.042771 2.234688 -7.451997 1.858080 0.250035 -2.198279 0.000000 0.000000 0.000000 -2.559412 6.173800 -1.833757 -6.450377 -4.501246 -1.932234 12.350295 5.277128 0.121193 -4.506889 -0.044182 1.736008 -0.005864 0.297093 0.994517 0.000000 0.000000 0.000000 -2.523016 7.776632 -1.796251 9.507628 -0.380090 1.252066 3.185773 0.264476 -0.602360 0.345549 -2.366883 0.840534 0.000000 0.000000 0.000000 -4.056022 0.084890 0.091773 -0.138644 0.354946 0.289993 6.367224 -4.081579 -0.863858 0.000000 0.000000 0.000000 -4.632034 -0.380704 0.078078 0.690383 -3.697938 -8.137977 -0.860643 -2.032075 1.078065 4.605018 1.127536 -72.118916 3.454247 -12.004921 1.253653 0.000000 0.000000 0.000000 -5.393564 -0.694002 0.206251 0.637089 7.867113 5.446945 -3.051490 -1.034437 -0.459977 3.447012 13.412623 76.320957 16.978800 20.351701 -5.678773 0.000000 0.000000 0.000000 
0.655276 33.627548 -0.083000 0.000000 0.000000 0.000000 -2.748321 5.714099 -1.875782 -5.287054 10.752490 15.219360 18.896405 -5.123562 -2.122121 -15.695083 2.330066 -7.345702 1.867754 0.222101 -2.005001 0.000000 0.000000 0.000000 -2.407307 6.029491 -1.947597 -5.892520 -4.643381 -2.465173 12.153597 5.508641 0.103467 -5.323253 0.419012 1.525682 -0.559260 0.404059 0.538151 0.000000 0.000000 0.000000 -2.462522 7.391679 -1.732493 9.342113 -0.243765 1.263398 3.209088 0.335837 -0.609665 0.322951 -2.239491 0.765784 0.000000 0.000000 0.000000 -3.917460 0.133576 0.103943 -0.296096 0.548077 0.038655 6.143837 -4.192617 -0.555783 0.000000 0.000000 0.000000 -4.519860 -0.333382 0.052175 0.762352 -3.642145 -7.873901 -1.022291 -2.100230 1.095376 4.483293 0.688233 -72.053674 3.601627 -12.078419 1.170488 0.000000 0.000000 0.000000 -5.241688 -0.634840 0.214061 0.670795 7.587010 5.196451 -2.993373 -1.215939 -0.535614 3.516441 13.897413 76.207788 17.101317 21.198240 -6.571169 0.000000 0.000000 0.000000 
0.834938 33.538204 0.124929 0.000000 0.000000 0.000000 -2.878258 5.649667 -1.897620 -5.056648 10.532703 14.984438 19.225243 -4.693122 -2.403570 -16.420200 2.373796 -7.035506 1.669828 0.197354 -1.690185 0.000000 0.000000 0.000000 -2.362851 5.824376 -2.010952 -5.054111 -4.822499 -3.145189 11.872483 5.771965 0.236913 -6.221952 0.905182 1.546627 -1.147894 0.505563 0.098446 0.000000 0.000000 0.000000 -2.496579 7.144150 -1.679784 9.178437 -0.109238 1.262762 3.247438 0.407645 -0.578221 0.300999 -1.996768 0.732107 0.000000 0.000000 0.000000 -3.803065 0.167068 0.154772 -0.466791 0.746277 -0.233269 5.838815 -4.308431 -0.216016 0.000000 0.000000 0.000000 -4.381362 -0.285549 0.067532 0.835132 -3.586861 -7.634612 -1.205318 -2.209507 1.073720 4.396899 0.184015 -72.071412 3.822574 -12.110259 1.072661 0.000000 0.000000 0.000000 -5.040935 -0.578947 0.239572 0.739079 7.403196 4.958285 -2.895301 -1.301617 -0.603197 3.523230 14.222140 76.178582 17.125303 21.909218 -7.613065 0.000000 0.000000 0.000000 
1.004251 33.461163 0.346706 0.000000 0.000000 0.000000 -3.035745 5.567732 -1.837735 -4.667433 10.190617 14.670447 19.483509 -4.115208 -2.614393 -17.123455 2.410182 -6.441899 1.488965 0.178606 -1.352233 0.000000 0.000000 0.000000 -2.474945 5.597104 -1.999255 -4.121542 -4.986557 -3.875117 11.568349 5.957390 0.510329 -7.140277 1.285902 1.845449 -1.486973 0.585184 -0.252635 0.000000 0.000000 0.000000 -2.584496 7.069821 -1.671963 9.063661 -0.008657 1.239469 3.277008 0.463644 -0.500752 0.364617 -1.590534 0.694367 0.000000 0.000000 0.000000 -3.717243 0.175940 0.244112 -0.608731 0.931524 -0.441857 5.484068 -4.438446 0.133950 0.000000 0.000000 0.000000 -4.248787 -0.246539 0.128600 0.902097 -3.549903 -7.493883 -1.357645 -2.357792 1.022968 4.314550 -0.308004 -72.206158 4.100488 -12.125252 0.967537 0.000000 0.000000 0.000000 -4.827842 -0.532879 0.291395 0.829525 7.348544 4.755449 -2.773315 -1.306744 -0.629180 3.373785 14.283095 76.261364 16.943172 22.288488 -8.627793 0.000000 0.000000 0.000000 
